<svg width="64" height="64" viewBox="0 0 64 64" fill="none" xmlns="http://www.w3.org/2000/svg">
  <!-- Background circle with gradient -->
  <circle cx="32" cy="32" r="32" fill="url(#gradient1)"/>
  
  <!-- Inner circle for depth -->
  <circle cx="32" cy="32" r="28" fill="url(#gradient2)"/>
  
  <!-- Letter F with book design -->
  <g transform="translate(16, 12)">
    <!-- Book base -->
    <rect x="2" y="8" width="20" height="24" rx="2" fill="url(#bookGradient)" stroke="#ffffff" stroke-width="1"/>
    
    <!-- Book pages -->
    <rect x="4" y="10" width="16" height="20" rx="1" fill="#ffffff" opacity="0.9"/>
    <rect x="5" y="12" width="14" height="16" rx="0.5" fill="#f8fafc"/>
    
    <!-- Letter F on the book -->
    <g fill="#1e40af">
      <!-- F vertical line -->
      <rect x="8" y="14" width="3" height="14" rx="1"/>
      <!-- F top horizontal line -->
      <rect x="8" y="14" width="8" height="3" rx="1"/>
      <!-- F middle horizontal line -->
      <rect x="8" y="20" width="6" height="3" rx="1"/>
    </g>
    
    <!-- Cute eyes -->
    <circle cx="12" cy="6" r="2" fill="#1e40af"/>
    <circle cx="20" cy="6" r="2" fill="#1e40af"/>
    <circle cx="12.5" cy="5.5" r="0.8" fill="#ffffff"/>
    <circle cx="20.5" cy="5.5" r="0.8" fill="#ffffff"/>
    
    <!-- Cute smile -->
    <path d="M 10 8 Q 16 12 22 8" stroke="#1e40af" stroke-width="2" fill="none" stroke-linecap="round"/>
    
    <!-- Sparkles around the book -->
    <g fill="#fbbf24" opacity="0.8">
      <circle cx="6" cy="16" r="1"/>
      <circle cx="26" cy="18" r="1"/>
      <circle cx="4" cy="24" r="0.8"/>
      <circle cx="28" cy="26" r="0.8"/>
    </g>
    
    <!-- Small graduation cap -->
    <g transform="translate(18, 2)">
      <rect x="0" y="0" width="8" height="2" rx="1" fill="#1e40af"/>
      <polygon points="0,0 4,-2 8,0" fill="#1e40af"/>
      <circle cx="4" cy="-2" r="1" fill="#fbbf24"/>
    </g>
  </g>
  
  <!-- Gradients -->
  <defs>
    <linearGradient id="gradient1" x1="0%" y1="0%" x2="100%" y2="100%">
      <stop offset="0%" style="stop-color:#3b82f6;stop-opacity:1" />
      <stop offset="100%" style="stop-color:#1e40af;stop-opacity:1" />
    </linearGradient>
    
    <linearGradient id="gradient2" x1="0%" y1="0%" x2="100%" y2="100%">
      <stop offset="0%" style="stop-color:#60a5fa;stop-opacity:1" />
      <stop offset="100%" style="stop-color:#3b82f6;stop-opacity:1" />
    </linearGradient>
    
    <linearGradient id="bookGradient" x1="0%" y1="0%" x2="100%" y2="100%">
      <stop offset="0%" style="stop-color:#fbbf24;stop-opacity:1" />
      <stop offset="100%" style="stop-color:#f59e0b;stop-opacity:1" />
    </linearGradient>
  </defs>
</svg>
