<svg width="80" height="80" viewBox="0 0 80 80" fill="none" xmlns="http://www.w3.org/2000/svg">
  <!-- Background circle with gradient -->
  <circle cx="40" cy="40" r="40" fill="url(#gradient1)"/>
  
  <!-- Inner circle for depth -->
  <circle cx="40" cy="40" r="36" fill="url(#gradient2)"/>
  
  <!-- Letter F with book design -->
  <g transform="translate(20, 16)">
    <!-- Book base -->
    <rect x="2" y="10" width="24" height="28" rx="2.5" fill="url(#bookGradient)" stroke="#ffffff" stroke-width="1.5"/>
    
    <!-- Book pages -->
    <rect x="4" y="12" width="20" height="24" rx="1.5" fill="#ffffff" opacity="0.9"/>
    <rect x="5" y="14" width="18" height="20" rx="1" fill="#f8fafc"/>
    
    <!-- Letter F on the book -->
    <g fill="#1e40af">
      <!-- F vertical line -->
      <rect x="10" y="16" width="4" height="18" rx="1.5"/>
      <!-- F top horizontal line -->
      <rect x="10" y="16" width="12" height="4" rx="1.5"/>
      <!-- F middle horizontal line -->
      <rect x="10" y="24" width="8" height="4" rx="1.5"/>
    </g>
    
    <!-- Cute eyes -->
    <circle cx="14" cy="8" r="2.5" fill="#1e40af"/>
    <circle cx="26" cy="8" r="2.5" fill="#1e40af"/>
    <circle cx="14.5" cy="7.5" r="1" fill="#ffffff"/>
    <circle cx="26.5" cy="7.5" r="1" fill="#ffffff"/>
    
    <!-- Cute smile -->
    <path d="M 12 10 Q 20 15 28 10" stroke="#1e40af" stroke-width="2.5" fill="none" stroke-linecap="round"/>
    
    <!-- Sparkles around the book -->
    <g fill="#fbbf24" opacity="0.8">
      <circle cx="8" cy="20" r="1.5"/>
      <circle cx="32" cy="22" r="1.5"/>
      <circle cx="6" cy="28" r="1.2"/>
      <circle cx="34" cy="30" r="1.2"/>
      <circle cx="4" cy="36" r="1"/>
      <circle cx="36" cy="38" r="1"/>
    </g>
    
    <!-- Small graduation cap -->
    <g transform="translate(22, 2)">
      <rect x="0" y="0" width="10" height="2.5" rx="1.5" fill="#1e40af"/>
      <polygon points="0,0 5,-2.5 10,0" fill="#1e40af"/>
      <circle cx="5" cy="-2.5" r="1.2" fill="#fbbf24"/>
    </g>
    
    <!-- Animated sparkles -->
    <g fill="#fbbf24" opacity="0.6">
      <circle cx="2" cy="12" r="0.8">
        <animate attributeName="opacity" values="0.6;1;0.6" dur="2s" repeatCount="indefinite"/>
      </circle>
      <circle cx="38" cy="14" r="0.8">
        <animate attributeName="opacity" values="0.6;1;0.6" dur="2s" repeatCount="indefinite" begin="0.5s"/>
      </circle>
      <circle cx="0" cy="32" r="0.6">
        <animate attributeName="opacity" values="0.6;1;0.6" dur="2s" repeatCount="indefinite" begin="1s"/>
      </circle>
      <circle cx="40" cy="34" r="0.6">
        <animate attributeName="opacity" values="0.6;1;0.6" dur="2s" repeatCount="indefinite" begin="1.5s"/>
      </circle>
    </g>
  </g>
  
  <!-- Gradients -->
  <defs>
    <linearGradient id="gradient1" x1="0%" y1="0%" x2="100%" y2="100%">
      <stop offset="0%" style="stop-color:#3b82f6;stop-opacity:1" />
      <stop offset="100%" style="stop-color:#1e40af;stop-opacity:1" />
    </linearGradient>
    
    <linearGradient id="gradient2" x1="0%" y1="0%" x2="100%" y2="100%">
      <stop offset="0%" style="stop-color:#60a5fa;stop-opacity:1" />
      <stop offset="100%" style="stop-color:#3b82f6;stop-opacity:1" />
    </linearGradient>
    
    <linearGradient id="bookGradient" x1="0%" y1="0%" x2="100%" y2="100%">
      <stop offset="0%" style="stop-color:#fbbf24;stop-opacity:1" />
      <stop offset="100%" style="stop-color:#f59e0b;stop-opacity:1" />
    </linearGradient>
  </defs>
</svg>
